<svg id="visual" viewBox="0 0 960 540" width="960" height="540" xmlns="http://www.w3.org/2000/svg" xmlns:xlink="http://www.w3.org/1999/xlink" version="1.1"><g transform="translate(410.2876512924099 462.48199504211016)"><path d="M343.6 -570.2C433.5 -476.9 486.5 -361.6 513.8 -249.9C541.1 -138.1 542.7 -29.9 564.8 108.2C586.9 246.2 629.4 414.2 545.5 424.5C461.6 434.8 251.4 287.4 127.2 231.8C3.1 176.2 -34.9 212.4 -57.7 202.8C-80.5 193.3 -88.1 138.1 -175.9 111.1C-263.7 84 -431.8 85.1 -453.4 54.1C-475.1 23.2 -350.3 -39.9 -341.6 -196.3C-332.9 -352.6 -440.1 -602.2 -402.5 -719.3C-364.9 -836.5 -182.5 -821.3 -27.8 -778C126.9 -734.7 253.7 -663.5 343.6 -570.2" fill="#000000"></path></g></svg>