<svg id="visual" viewBox="0 0 1920 1080" width="1920" height="1080" xmlns="http://www.w3.org/2000/svg" xmlns:xlink="http://www.w3.org/1999/xlink" version="1.1"><rect x="0" y="0" width="1920" height="1080" fill="#000000"></rect><path d="M0 604L80 568.2C160 532.3 320 460.7 480 405.8C640 351 800 313 960 297C1120 281 1280 287 1440 334.2C1600 381.3 1760 469.7 1840 513.8L1920 558L1920 1081L1840 1081C1760 1081 1600 1081 1440 1081C1280 1081 1120 1081 960 1081C800 1081 640 1081 480 1081C320 1081 160 1081 80 1081L0 1081Z" fill="#000000"></path><path d="M0 678L80 653C160 628 320 578 480 530C640 482 800 436 960 456.2C1120 476.3 1280 562.7 1440 576C1600 589.3 1760 529.7 1840 499.8L1920 470L1920 1081L1840 1081C1760 1081 1600 1081 1440 1081C1280 1081 1120 1081 960 1081C800 1081 640 1081 480 1081C320 1081 160 1081 80 1081L0 1081Z" fill="#002501"></path><path d="M0 484L80 495.3C160 506.7 320 529.3 480 550.8C640 572.3 800 592.7 960 601.2C1120 609.7 1280 606.3 1440 617.8C1600 629.3 1760 655.7 1840 668.8L1920 682L1920 1081L1840 1081C1760 1081 1600 1081 1440 1081C1280 1081 1120 1081 960 1081C800 1081 640 1081 480 1081C320 1081 160 1081 80 1081L0 1081Z" fill="#003d1c"></path><path d="M0 613L80 643.7C160 674.3 320 735.7 480 760C640 784.3 800 771.7 960 742.8C1120 714 1280 669 1440 640C1600 611 1760 598 1840 591.5L1920 585L1920 1081L1840 1081C1760 1081 1600 1081 1440 1081C1280 1081 1120 1081 960 1081C800 1081 640 1081 480 1081C320 1081 160 1081 80 1081L0 1081Z" fill="#1d5633"></path><path d="M0 694L80 708.3C160 722.7 320 751.3 480 771.7C640 792 800 804 960 801.2C1120 798.3 1280 780.7 1440 768.8C1600 757 1760 751 1840 748L1920 745L1920 1081L1840 1081C1760 1081 1600 1081 1440 1081C1280 1081 1120 1081 960 1081C800 1081 640 1081 480 1081C320 1081 160 1081 80 1081L0 1081Z" fill="#38714b"></path><path d="M0 900L80 901.5C160 903 320 906 480 899.7C640 893.3 800 877.7 960 866.7C1120 855.7 1280 849.3 1440 844.3C1600 839.3 1760 835.7 1840 833.8L1920 832L1920 1081L1840 1081C1760 1081 1600 1081 1440 1081C1280 1081 1120 1081 960 1081C800 1081 640 1081 480 1081C320 1081 160 1081 80 1081L0 1081Z" fill="#538c65"></path><path d="M0 958L80 950.5C160 943 320 928 480 920.5C640 913 800 913 960 912.2C1120 911.3 1280 909.7 1440 914.7C1600 919.7 1760 931.3 1840 937.2L1920 943L1920 1081L1840 1081C1760 1081 1600 1081 1440 1081C1280 1081 1120 1081 960 1081C800 1081 640 1081 480 1081C320 1081 160 1081 80 1081L0 1081Z" fill="#6fa980"></path></svg>